{"title":"Super Boobs Vol.3 (1950's - 60's)","uid":5284170,"size":1405629705,"categoryP":"porn","categoryS":"movies","magnet":"?xt=urn:btih:06323b4ca56c53d06cbcc1dbc496281e4c111cc5&amp;dn=Super+Boobs+Vol.3+%281950%5C%27s+-+60%5C%27s%29&amp;tr=udp%3A%2F%2Ftracker.openbittorrent.com%3A80&amp;tr=udp%3A%2F%2Fopen.demonii.com%3A1337&amp;tr=udp%3A%2F%2Ftracker.coppersurfer.tk%3A6969&amp;tr=udp%3A%2F%2Fexodus.desync.com%3A6969","seeders":1,"leechers":0,"uploader":"Beebe85","files":-1,"time":1263656666,"description":"Complete name                    : Super Boobs Vol.3 .wmv\nFormat                           : Windows Media\nFile size                        : 1.31 GiB\nDuration                         : 1h 58mn\nOverall bit rate mode            : Variable\nOverall bit rate                 : 1588 Kbps\nMaximum Overall bit rate         : 4637 Kbps\nEncoded date                     : UTC 2008-09-30 14:31:45.330\nWriting application              :  6.0.6000.16386 / Windows Movie Maker\nApplication                      : Windows Movie Maker 6.0.6000.16386\n\nVideo\nID                               : 2\nFormat                           : VC-1\nFormat profile                   : MP@ML\nCodec ID                         : WMV3\nCodec ID/Info                    : Windows Media Video 9\nCodec ID/Hint                    : WMV3\nDescription of the codec         : Windows Media Video 9\nDuration                         : 1h 58mn\nBit rate mode                    : Variable\nBit rate                         : 1474 Kbps\nWidth                            : 640 pixels\nHeight                           : 480 pixels\nDisplay aspect ratio             : 4:3\nFrame rate                       : 30.000 fps\nResolution                       : 24 bits\nScan type                        : Progressive\nBits/(Pixel*Frame)               : 0.160\nStream size                      : 1.21 GiB (93%)\nLanguage                         : English (US)\n\nAudio\nID                               : 1\nFormat                           : WMA\nFormat version                   : Version 2\nCodec ID                         : 161\nCodec ID/Info                    : Windows Media Audio\nDescription of the codec         : Windows Media Audio 9.2 - VBR Quality 90, 48 kHz, stereo 1-pass VBR\nDuration                         : 1h 58mn\nBit rate mode                    : Variable\nBit rate                         : 103 Kbps\nChannel(s)                       : 2 channels\nSampling rate                    : 48.0 KHz\nResolution                       : 16 bits\nStream size                      : 86.6 MiB (6%)\nLanguage                         : English (US)\n\n","torrent":{"xt":"urn:btih:06323b4ca56c53d06cbcc1dbc496281e4c111cc5","amp;dn":"Super+Boobs+Vol.3+%281950%5C%27s+-+60%5C%27s%29","amp;tr":["udp%3A%2F%2Ftracker.openbittorrent.com%3A80","udp%3A%2F%2Fopen.demonii.com%3A1337","udp%3A%2F%2Ftracker.coppersurfer.tk%3A6969","udp%3A%2F%2Fexodus.desync.com%3A6969"],"infoHash":"06323b4ca56c53d06cbcc1dbc496281e4c111cc5","infoHashBuffer":{"type":"Buffer","data":[6,50,59,76,165,108,83,208,108,188,193,219,196,150,40,30,76,17,28,197]},"announce":[],"urlList":[]}}